<svg width="307" height="51" viewBox="0 0 307 51" fill="none" xmlns="http://www.w3.org/2000/svg">
<g id="Frame 1">
<g id="Instagram">
<path id="Vector" d="M35.896 4.22272C38.6937 4.23108 41.3744 5.34617 43.3527 7.32446C45.331 9.30276 46.4461 11.9835 46.4544 14.7812V35.8959C46.4461 38.6937 45.331 41.3744 43.3527 43.3527C41.3744 45.331 38.6937 46.4461 35.896 46.4544H14.7812C11.9835 46.4461 9.30276 45.331 7.32446 43.3527C5.34617 41.3744 4.23107 38.6937 4.22272 35.8959V14.7812C4.23107 11.9835 5.34617 9.30279 7.32446 7.32449C9.30276 5.3462 11.9835 4.2311 14.7812 4.22275H35.8959L35.896 4.22272ZM35.8959 3.05176e-05H14.7812C10.8645 0.0114409 7.11146 1.5724 4.34192 4.34195C1.57237 7.1115 0.0114077 10.8645 0 14.7812V35.8959C0.0114077 39.8126 1.57237 43.5657 4.34192 46.3352C7.11146 49.1048 10.8645 50.6657 14.7812 50.6772H35.8959C39.8127 50.6658 43.5657 49.1048 46.3353 46.3353C49.1048 43.5657 50.6658 39.8127 50.6772 35.8959V14.7812C50.6658 10.8645 49.1049 7.11147 46.3353 4.34192C43.5657 1.57236 39.8127 0.0113972 35.896 0L35.8959 3.05176e-05Z" fill="#6C63FF"/>
<path id="Vector_2" d="M39.0633 14.7812C38.2256 14.7794 37.423 14.4452 36.8316 13.852C36.2403 13.2587 35.9086 12.4549 35.9095 11.6173C35.9104 10.7797 36.2438 9.97665 36.8364 9.38467C37.429 8.79269 38.2324 8.46021 39.0701 8.46021C39.9077 8.46021 40.7111 8.79269 41.3037 9.38467C41.8963 9.97665 42.2297 10.7797 42.2306 11.6173C42.2315 12.4549 41.8998 13.2587 41.3085 13.852C40.7172 14.4452 39.9145 14.7794 39.0769 14.7812C39.0723 14.7812 39.0678 14.7812 39.0633 14.7812Z" fill="#6C63FF"/>
<path id="Vector_3" d="M25.3386 16.892C27.0092 16.892 28.6422 17.3874 30.0313 18.3155C31.4203 19.2436 32.5029 20.5628 33.1422 22.1062C33.7815 23.6496 33.9488 25.3479 33.6229 26.9864C33.297 28.6249 32.4925 30.1299 31.3112 31.3112C30.13 32.4925 28.6249 33.2969 26.9864 33.6228C25.348 33.9487 23.6496 33.7815 22.1062 33.1422C20.5628 32.5029 19.2436 31.4203 18.3155 30.0312C17.3874 28.6422 16.892 27.0092 16.892 25.3386C16.892 24.2294 17.1105 23.131 17.535 22.1062C17.9595 21.0814 18.5816 20.1503 19.366 19.3659C20.1503 18.5816 21.0815 17.9595 22.1062 17.535C23.131 17.1105 24.2294 16.892 25.3386 16.892V16.892ZM25.3386 12.6693C22.8328 12.6693 20.3834 13.4123 18.2999 14.8044C16.2164 16.1966 14.5926 18.1752 13.6337 20.4902C12.6748 22.8052 12.4239 25.3526 12.9127 27.8102C13.4016 30.2678 14.6082 32.5253 16.38 34.2971C18.1519 36.069 20.4093 37.2756 22.8669 37.7644C25.3245 38.2533 27.8719 38.0024 30.1869 37.0435C32.5019 36.0846 34.4806 34.4607 35.8727 32.3773C37.2648 30.2938 38.0079 27.8443 38.0079 25.3386C38.0079 23.6748 37.6802 22.0273 37.0435 20.4902C36.4068 18.9531 35.4736 17.5565 34.2972 16.38C33.1207 15.2035 31.724 14.2703 30.1869 13.6336C28.6498 12.9969 27.0024 12.6693 25.3386 12.6693V12.6693Z" fill="#6C63FF"/>
</g>
<path id="Twitter" d="M132.745 7.68208L127.677 6.58464C127.677 6.58464 131.934 11.7426 132.745 12.0718C132.821 13.1678 132.821 14.2682 132.745 15.3642C142.476 60.5787 178.357 40.6053 178.357 40.6053C165.282 40.9345 164.167 35.1181 164.167 35.1181C171.769 33.9109 173.289 28.5334 173.289 28.5334C172.607 28.923 171.816 29.0264 171.068 28.8239C170.32 28.6214 169.667 28.1272 169.235 27.436C177.445 25.1314 176.33 16.4616 176.33 16.4616C174.867 17.6055 173.156 18.3235 171.363 18.5467C172.276 17.3395 179.979 7.35285 175.316 2.19488C175.316 2.19488 169.64 13.1693 154.74 14.157L153.727 13.9375C153.899 13.147 153.967 12.3342 153.929 11.5231C153.929 8.467 152.808 5.53605 150.812 3.37504C148.816 1.21404 146.109 0 143.287 0C136.191 0 134.671 4.38976 134.671 4.38976L129.603 1.09744C129.704 1.09744 130.211 6.58464 132.745 7.68208Z" fill="#6C63FF"/>
<path id="Facebook" fill-rule="evenodd" clip-rule="evenodd" d="M306.037 25.4908C306.036 20.6187 304.648 15.8488 302.037 11.7459C299.425 7.64306 295.7 4.37891 291.302 2.33997C286.904 0.301028 282.017 -0.427328 277.221 0.241101C272.424 0.90953 267.918 2.94677 264.237 6.11164C260.555 9.2765 257.852 13.4365 256.447 18.099C255.042 22.7616 254.995 27.7316 256.31 32.4205C257.625 37.1094 260.248 41.321 263.869 44.5567C267.489 47.7923 271.955 49.9165 276.738 50.6777V32.8628H270.302V25.4908H276.738V19.8727C276.738 13.484 280.522 9.95223 286.309 9.95223C288.21 9.97886 290.106 10.1455 291.983 10.4508V16.7256H288.786C285.64 16.7256 284.655 18.6901 284.655 20.7092V25.4919H291.683L290.561 32.8639H284.655V50.68C290.616 49.7301 296.045 46.6713 299.965 42.0538C303.884 37.4363 306.037 31.5631 306.037 25.4908V25.4908Z" fill="#6C63FF"/>
</g>
</svg>
